HIERARCHY
ROOT joint_0
{
	OFFSET 0.000000 0.000000 0.000000
	CHANNELS 6 Xposition Yposition Zposition Zrotation Yrotation Xrotation 
	JOINT joint_1
	{
		OFFSET 7.745728 2.152245 124.869995
		CHANNELS 3 Zrotation Yrotation Xrotation
		JOINT joint_2
		{
			OFFSET -6.359406 2.617477 113.975952
			CHANNELS 3 Zrotation Yrotation Xrotation
			JOINT joint_3
			{
				OFFSET -8.187927 3.340103 113.713013
				CHANNELS 3 Zrotation Yrotation Xrotation
				JOINT joint_4
				{
					OFFSET 2.859222 5.755905 159.680054
					CHANNELS 3 Zrotation Yrotation Xrotation
					JOINT joint_5
					{
						OFFSET 22.724274 2.598469 88.906982
						CHANNELS 3 Zrotation Yrotation Xrotation
						End Site
						{
							OFFSET 0.000000 0.000000 0.000000
						}
					}
				}
				JOINT joint_6
				{
					OFFSET 2.312134 -31.513222 90.723022
					CHANNELS 3 Zrotation Yrotation Xrotation
					JOINT joint_7
					{
						OFFSET -0.486389 -150.827950 -17.660034
						CHANNELS 3 Zrotation Yrotation Xrotation
						JOINT joint_8
						{
							OFFSET 15.633850 -16.961029 -297.395020
							CHANNELS 3 Zrotation Yrotation Xrotation
							JOINT joint_9
							{
								OFFSET 5.600098 1.609863 -262.782959
								CHANNELS 3 Zrotation Yrotation Xrotation
								End Site
								{
									OFFSET 0.000000 0.000000 0.000000
								}
							}
						}
					}
				}
				JOINT joint_10
				{
					OFFSET 1.012756 37.963039 88.243042
					CHANNELS 3 Zrotation Yrotation Xrotation
					JOINT joint_11
					{
						OFFSET -2.397430 150.471996 -20.492065
						CHANNELS 3 Zrotation Yrotation Xrotation
						JOINT joint_12
						{
							OFFSET -10.575745 12.779427 -297.765015
							CHANNELS 3 Zrotation Yrotation Xrotation
							JOINT joint_13
							{
								OFFSET 196.311081 2.689713 -176.286011
								CHANNELS 3 Zrotation Yrotation Xrotation
								End Site
								{
									OFFSET 0.000000 0.000000 0.000000
								}
							}
						}
					}
				}
			}
		}
	}
	JOINT joint_14
	{
		OFFSET 1.244965 -96.891136 -118.152039
		CHANNELS 3 Zrotation Yrotation Xrotation
		JOINT joint_15
		{
			OFFSET -2.982971 -16.401871 -443.439026
			CHANNELS 3 Zrotation Yrotation Xrotation
			JOINT joint_16
			{
				OFFSET -42.052063 -15.386002 -460.966980
				CHANNELS 3 Zrotation Yrotation Xrotation
				JOINT joint_17
				{
					OFFSET 177.916595 102.818184 -88.655001
					CHANNELS 3 Zrotation Yrotation Xrotation
					End Site
					{
						OFFSET 0.000000 0.000000 0.000000
					}
				}
			}
		}
	}
	JOINT joint_18
	{
		OFFSET 1.788635 96.476997 -118.463074
		CHANNELS 3 Zrotation Yrotation Xrotation
		JOINT joint_19
		{
			OFFSET -9.555542 8.093691 -443.574951
			CHANNELS 3 Zrotation Yrotation Xrotation
			JOINT joint_20
			{
				OFFSET -48.427551 9.415819 -460.500023
				CHANNELS 3 Zrotation Yrotation Xrotation
				JOINT joint_21
				{
					OFFSET 204.978119 20.223980 -87.523996
					CHANNELS 3 Zrotation Yrotation Xrotation
					End Site
					{
						OFFSET 0.000000 0.000000 0.000000
					}
				}
			}
		}
	}
}
MOTION
Frames: 12
Frame Time: 0.016667
-192.052277 -110.414482 1139.785034 -0.806265 7.826803 -3.266048 2.094744 -4.521771 -3.532233 1.849214 0.648767 0.787403 1.770774 -0.997711 -0.553965 1.123219 1.662175 -4.334098 0.000000 0.000000 0.000000 7.074588 7.043677 -4.374093 -5.076921 8.270798 -7.343634 -2.091951 -23.270673 23.446273 0.000000 0.000000 0.000000 -1.402027 -0.414398 2.378925 5.125609 0.383701 4.962740 6.605273 31.098928 6.838824 0.000000 0.000000 0.000000 -0.479929 -13.935576 -2.436057 -2.176799 11.361503 -0.694806 -1.978025 1.150228 -1.614872 0.000000 0.000000 0.000000 -7.222505 -11.252180 12.333993 -7.228110 26.638218 -12.902469 -13.393610 -2.312886 -4.977283 0.000000 0.000000 0.000000 
-183.498642 -114.019318 1135.426025 -1.109729 7.918024 -3.534540 2.689306 -4.181442 -4.287394 2.334077 0.675826 0.986930 2.204954 -1.011040 -0.739648 1.211812 1.781671 -4.624797 0.000000 0.000000 0.000000 7.392337 7.164993 -4.268279 -5.849786 8.484885 -7.464641 -2.660842 -24.397066 26.124716 0.000000 0.000000 0.000000 -1.877732 -0.666901 2.683623 5.824997 0.293636 5.792892 7.192605 27.241325 7.093099 0.000000 0.000000 0.000000 -0.127661 -13.345226 -2.482094 -2.126601 11.643296 0.081300 -1.943757 -0.550879 -0.605169 0.000000 0.000000 0.000000 -7.867689 -13.917359 14.938713 -8.491574 31.689996 -16.326377 -18.067093 -1.862670 -6.687670 0.000000 0.000000 0.000000 
-176.326035 -117.268303 1131.564941 -1.748388 7.945928 -3.807900 3.175965 -3.595261 -5.091546 2.782020 0.614051 1.153965 2.597338 -0.943731 -0.965473 1.305603 1.879227 -4.902521 0.000000 0.000000 0.000000 7.792334 6.943963 -3.979649 -6.550044 8.372338 -7.760186 -3.162866 -25.005754 28.646324 0.000000 0.000000 0.000000 -2.169326 -0.940968 2.889749 6.405177 0.150517 6.754558 7.674004 23.331569 7.225348 0.000000 0.000000 0.000000 0.331219 -12.969041 -2.609202 -1.987741 12.478491 1.074933 -1.807311 -2.124919 0.384011 0.000000 0.000000 0.000000 -7.946441 -16.226319 17.265867 -9.368950 36.093059 -18.713223 -22.485397 -1.195301 -8.291678 0.000000 0.000000 0.000000 
-171.001587 -119.844254 1129.474976 -2.758849 7.839796 -3.892765 3.301924 -2.480265 -6.276269 3.094375 0.336447 1.381878 2.856570 -0.678795 -1.209946 1.384571 1.983652 -5.070274 0.000000 0.000000 0.000000 8.224882 6.050448 -3.575566 -6.939870 7.589815 -8.252028 -3.388213 -24.396658 30.743322 0.000000 0.000000 0.000000 -1.896735 -1.334273 2.973813 7.028216 -0.164284 7.737302 8.204308 19.607284 7.463391 0.000000 0.000000 0.000000 0.830260 -12.601830 -2.927766 -1.705642 12.395845 1.788448 -1.532148 -2.678138 0.844793 0.000000 0.000000 0.000000 -7.347980 -17.857016 18.743363 -9.533882 39.598181 -19.230879 -25.099830 -0.768357 -9.230704 0.000000 0.000000 0.000000 
-167.541656 -122.086945 1128.495972 -4.044318 7.699536 -3.818490 3.112736 -1.066444 -7.857404 3.281235 -0.049588 1.640924 2.994668 -0.300336 -1.469356 1.465827 1.999129 -5.170974 0.000000 0.000000 0.000000 8.742785 4.614207 -3.027132 -7.079676 6.267860 -8.870055 -3.388791 -22.807979 32.582149 0.000000 0.000000 0.000000 -1.212772 -1.807783 3.078699 7.694330 -0.575181 8.699109 8.775486 15.860054 7.793869 0.000000 0.000000 0.000000 1.375975 -12.452890 -3.482458 -1.354887 12.288851 2.549052 -1.169800 -2.772782 1.080267 0.000000 0.000000 0.000000 -6.393439 -19.064816 19.683328 -9.276840 42.446101 -18.527756 -26.351431 -0.825526 -9.656441 0.000000 0.000000 0.000000 
-163.762787 -122.805794 1128.074951 -5.357899 7.422668 -3.793337 2.779733 0.247234 -9.252954 3.353916 -0.364026 1.822119 3.033526 0.001046 -1.675464 1.557294 1.940464 -5.278865 0.000000 0.000000 0.000000 9.154218 3.233850 -2.551200 -6.951108 4.957319 -9.344027 -3.200112 -21.184852 33.619435 0.000000 0.000000 0.000000 -0.490107 -2.114262 3.294485 8.353996 -0.806640 9.288448 9.316214 12.360137 8.169678 0.000000 0.000000 0.000000 1.884757 -12.088464 -3.967880 -0.937883 12.019567 3.147180 -0.740259 -2.724774 1.262323 0.000000 0.000000 0.000000 -5.190732 -20.025984 20.287862 -8.653387 44.889296 -17.092228 -26.290924 -0.589707 -9.646846 0.000000 0.000000 0.000000 
-158.265884 -121.046288 1127.998047 -6.570273 6.927479 -3.907951 2.446747 1.220018 -10.109561 3.331848 -0.518579 1.945119 2.990816 0.172085 -1.821093 1.664972 1.887315 -5.470713 0.000000 0.000000 0.000000 9.333029 2.268608 -2.227743 -6.555047 3.993611 -9.567117 -2.839801 -20.229405 33.384957 0.000000 0.000000 0.000000 0.025729 -2.072016 3.619311 9.051045 -0.665543 9.267239 9.838225 9.245890 8.593185 0.000000 0.000000 0.000000 2.301186 -11.177607 -4.229469 -0.423322 11.376337 3.396240 -0.226145 -2.730746 1.510192 0.000000 0.000000 0.000000 -3.636774 -20.936293 20.530083 -7.466328 47.209907 -14.957102 -24.307509 0.758640 -9.050725 0.000000 0.000000 0.000000 
-151.889557 -117.271439 1128.459961 -7.753764 6.268899 -4.055811 2.076429 1.990798 -10.692253 3.204798 -0.587213 2.081954 2.843874 0.304805 -1.944196 1.789373 1.850248 -5.733049 0.000000 0.000000 0.000000 9.346776 1.490497 -1.914260 -5.916995 3.164017 -9.673363 -2.315487 -19.592980 32.101952 0.000000 0.000000 0.000000 0.464478 -1.774089 4.016829 9.838681 -0.248364 8.764763 10.396233 6.382378 9.089224 0.000000 0.000000 0.000000 2.652750 -9.902218 -4.424121 0.182175 10.429603 3.394835 0.373861 -2.684856 1.763921 0.000000 0.000000 0.000000 -1.628573 -21.783066 20.280056 -5.595063 49.157783 -11.920226 -19.985757 3.032905 -7.721466 0.000000 0.000000 0.000000 
-144.386627 -112.153175 1128.913940 -8.841167 5.586582 -4.293147 1.747257 2.532976 -11.001833 3.019497 -0.598642 2.163724 2.642061 0.378628 -2.008740 1.904641 1.898721 -5.977473 0.000000 0.000000 0.000000 9.251102 0.983586 -1.698533 -5.230590 2.572907 -9.748271 -1.774204 -19.155855 30.483320 0.000000 0.000000 0.000000 0.766175 -1.317700 4.335719 10.523478 0.327821 8.181435 10.849748 3.947599 9.512185 0.000000 0.000000 0.000000 2.950194 -8.588581 -4.542876 0.783293 9.545326 3.309140 0.971710 -2.544686 1.959784 0.000000 0.000000 0.000000 0.165293 -22.418025 19.989618 -3.880177 50.185262 -9.095480 -15.749132 4.924755 -6.411999 0.000000 0.000000 0.000000 
-135.306305 -105.999222 1129.057007 -9.745130 4.946661 -4.685129 1.500954 2.770314 -10.966048 2.788492 -0.540680 2.130057 2.406974 0.360320 -1.968758 1.991472 2.126410 -6.149479 0.000000 0.000000 0.000000 9.093368 0.861767 -1.701786 -4.606931 2.348226 -9.860922 -1.294325 -18.942143 28.916858 0.000000 0.000000 0.000000 0.829614 -0.702859 4.439079 11.022541 1.051675 7.773377 11.145468 2.063844 9.795471 0.000000 0.000000 0.000000 3.194101 -7.412159 -4.526664 1.318414 8.977905 3.204504 1.508784 -2.260513 2.042243 0.000000 0.000000 0.000000 0.995852 -22.708446 20.085075 -3.143998 50.182026 -7.458278 -13.955624 5.192059 -5.811835 0.000000 0.000000 0.000000 
-124.761070 -98.563278 1129.104980 -10.485248 4.290676 -5.201391 1.295092 2.747510 -10.582358 2.497037 -0.416268 2.020528 2.123889 0.274946 -1.846035 2.059522 2.517126 -6.287772 0.000000 0.000000 0.000000 8.847869 1.068847 -1.894595 -3.983594 2.426921 -10.023717 -0.832814 -18.978592 27.142382 0.000000 0.000000 0.000000 0.670014 0.096953 4.342455 11.421502 1.950872 7.396212 11.354756 0.643247 9.992365 0.000000 0.000000 0.000000 3.395561 -6.240111 -4.389765 1.822757 8.579655 3.019374 2.016069 -1.834593 2.026835 0.000000 0.000000 0.000000 1.127936 -22.693969 20.380365 -3.043209 49.415188 -6.578382 -13.664929 4.302404 -5.620277 0.000000 0.000000 0.000000 
-113.876434 -90.374260 1128.745972 -11.136996 3.786748 -5.762391 1.101760 2.620916 -10.063149 2.194553 -0.298631 1.885994 1.836961 0.188481 -1.707194 2.108728 2.884532 -6.370336 0.000000 0.000000 0.000000 8.459238 1.350877 -2.182998 -3.369553 2.561571 -10.162086 -0.395459 -18.944346 25.430289 0.000000 0.000000 0.000000 0.516523 0.812867 4.231517 11.597912 2.741978 7.017473 11.369470 -0.367638 10.008290 0.000000 0.000000 0.000000 3.580606 -5.261646 -4.290413 2.255438 8.290864 2.936575 2.464193 -1.422342 1.990165 0.000000 0.000000 0.000000 1.111911 -22.658987 20.665638 -3.073819 48.731167 -6.160318 -13.783128 3.652335 -5.598301 0.000000 0.000000 0.000000 
